<svg width="295" height="63" viewBox="0 0 295 63" fill="none" xmlns="http://www.w3.org/2000/svg">
<path d="M22.5863 0.146934L11.0294 5.58761C11.0171 5.589 11.0057 5.59375 10.997 5.60112C10.9882 5.60849 10.9826 5.61808 10.9809 5.62841C10.6069 5.80083 10.2752 6.03163 10.0037 6.3085C9.63594 6.70252 9.38843 7.16641 9.28284 7.65961C9.17725 8.15281 9.21679 8.66029 9.39798 9.13765L12.7738 18.1216C11.9073 18.4024 11.0653 18.7342 10.254 19.1145L10.0925 19.1961C5.68297 21.3039 2.3931 24.7476 0.892685 28.8261C-0.607734 32.9046 -0.205901 37.3114 2.01638 41.1492C1.42145 42.0171 1.23962 43.0428 1.50758 44.0192C1.77696 44.9999 2.48585 45.8552 3.48623 46.4063C4.47884 46.9629 5.68535 47.1817 6.86207 47.0183L22.8448 61.0961C23.7357 62.0328 24.9917 62.6737 26.3902 62.9051C27.7877 63.1376 29.2379 62.9397 30.4767 62.3474L43.98 55.9614C45.2206 55.3528 46.1654 54.3942 46.6473 53.2553C47.1291 52.1164 47.1169 50.8707 46.6129 49.7387L40.0066 31.3356C40.6455 30.7246 41.0456 29.9628 41.1526 29.1537C41.2595 28.3446 41.068 27.5273 40.6042 26.813C40.2031 26.2044 39.6187 25.6954 38.9098 25.3372C38.201 24.9791 37.3927 24.7844 36.5661 24.7728C34.3562 21.8728 31.1408 19.6153 27.3557 18.3063C23.5706 16.9972 19.399 16.7001 15.4066 17.4551L12.0308 8.53917C11.9673 8.39255 11.9588 8.23303 12.0064 8.08219C12.0541 7.93136 12.1556 7.79651 12.2973 7.69587C12.3563 7.66016 12.4105 7.61911 12.4588 7.57345L23.9189 2.13278C24.2247 1.98816 24.4505 1.74782 24.5473 1.4639C24.6441 1.17998 24.604 0.875387 24.4358 0.616192L24.3954 0.554985C24.2182 0.300262 23.929 0.114594 23.5903 0.0382137C23.2517 -0.0381662 22.891 0.000895637 22.5863 0.146934ZM21.0196 27.942L21.6899 28.418L22.4571 28.0508C23.2416 27.7194 24.12 27.5783 24.9943 27.6431C25.8686 27.708 26.7042 27.9763 27.4078 28.418L10.3671 36.477C10.2979 35.74 10.4624 35.0007 10.8436 34.3348C11.2386 33.673 11.8421 33.1154 12.5881 32.723L13.3957 32.3557L13.2422 31.628C13.1031 30.8216 13.2575 29.9985 13.6849 29.2674C14.1122 28.5362 14.7926 27.9313 15.6364 27.5322C16.4802 27.1331 17.4477 26.9587 18.4115 27.0318C19.3754 27.105 20.2903 27.4223 21.0357 27.942H21.0196ZM3.5993 29.2477C4.94786 25.8623 7.73512 23.0162 11.4251 21.2567C12.1395 20.9323 12.8787 20.6483 13.638 20.4066L15.4228 25.1672C15.0288 25.2784 14.6477 25.4196 14.284 25.5889C13.0935 26.1628 12.1066 26.9939 11.4251 27.9964C10.7572 29.0005 10.4224 30.1374 10.456 31.288C9.32666 32.0569 8.4853 33.0842 8.03311 34.2463C7.58069 35.3975 7.52469 36.6331 7.87159 37.81L4.06771 39.6122C2.40234 36.3236 2.23556 32.6334 3.5993 29.2477ZM44.1093 50.6024C44.3938 51.2223 44.4026 51.908 44.1339 52.5329C43.8653 53.1578 43.3373 53.6799 42.6475 54.0028L29.1361 60.3956C28.4698 60.7199 27.688 60.8332 26.9313 60.7152C26.1685 60.6003 25.4819 60.2544 25.0011 59.7427L24.1935 58.8926L43.6812 49.6503L44.1093 50.6024ZM42.6475 47.5216L22.4975 57.0428L15.9316 51.7857C17.5468 51.7857 18.314 51.7857 19.7274 51.1056C21.5852 50.2518 23.0665 48.9162 23.9512 47.2972C24.6174 46.0569 25.7368 45.0284 27.146 44.3617C28.5553 43.6949 30.1807 43.4248 31.7851 43.5907C33.9013 43.8013 36.0414 43.4265 37.8825 42.523C39.199 41.9313 39.4332 41.5028 40.3054 40.4827L42.6475 47.5216ZM39.7966 37.5856C39.1058 38.8153 37.9765 39.8328 36.5661 40.4963C35.1625 41.1605 33.5466 41.4365 31.9466 41.2852C29.8245 41.0956 27.6849 41.4664 25.8241 42.3461C23.9633 43.2259 22.4734 44.5711 21.5607 46.1954C20.8605 47.4075 19.7374 48.4106 18.3418 49.0705C16.9461 49.7305 15.3445 50.0158 13.751 49.8883L9.4222 46.1546L37.6887 32.7978L39.7966 37.5856ZM38.0925 28.0644C38.343 28.4324 38.418 28.8668 38.3026 29.2796C38.1871 29.6925 37.8898 30.053 37.4707 30.2883L7.03166 44.6584C6.6203 44.864 6.13393 44.936 5.66398 44.8609C5.19403 44.7857 4.77284 44.5686 4.47959 44.2504C4.18122 43.9337 4.0291 43.5368 4.05137 43.1329C4.07364 42.7291 4.2688 42.3458 4.60074 42.0537H4.6815C4.80767 41.9537 4.94569 41.8648 5.09339 41.7885L35.5243 27.3911C35.975 27.2133 36.4883 27.1838 36.9635 27.3084C37.4386 27.433 37.8413 27.7026 38.0925 28.0644ZM26.0591 20.4066C29.175 21.4327 31.8689 23.2002 33.8122 25.4937L30.0002 27.2959C28.9821 26.4374 27.702 25.8325 26.3014 25.5481C24.8946 25.277 23.4259 25.3429 22.0614 25.7385C20.8895 25.0998 19.5317 24.7445 18.1364 24.7116L16.2627 19.7266C19.5375 19.1496 22.9407 19.3859 26.0591 20.4066Z" fill="#811620"/>
<path d="M13.638 20.4067L15.4228 25.1672C15.0288 25.2784 14.6477 25.4196 14.284 25.5889C13.0935 26.1628 12.1066 26.9939 11.4251 27.9964C10.7572 29.0005 10.4224 30.1374 10.456 31.288C9.32668 32.0569 8.48531 33.0842 8.03312 34.2464C7.5807 35.3976 7.5247 36.6331 7.8716 37.81L4.06773 39.6122C2.40033 36.3345 2.22645 32.6541 3.57937 29.2752C4.93228 25.8963 7.71702 23.0559 11.4009 21.2976C12.1218 20.9584 12.8692 20.6607 13.638 20.4067Z" fill="#FFE9C5"/>
<path d="M33.8122 25.5005L30.0002 27.3027C28.9821 26.4442 27.702 25.8393 26.3013 25.5549C24.8946 25.2838 23.4259 25.3497 22.0614 25.7453C20.8895 25.1066 19.5317 24.7513 18.1364 24.7184L16.2627 19.7266C19.5385 19.1523 22.942 19.393 26.0582 20.4195C29.1743 21.4459 31.8685 23.2137 33.8122 25.5073V25.5005Z" fill="#FFE9C5"/>
<path d="M27.4078 28.418L10.3671 36.477C10.298 35.74 10.4624 35.0007 10.8436 34.3348C11.2386 33.673 11.8421 33.1154 12.5881 32.723L13.3957 32.3557L13.2422 31.628C13.1032 30.8216 13.2575 29.9985 13.6849 29.2674C14.1123 28.5362 14.7927 27.9313 15.6364 27.5322C16.4802 27.1331 17.4477 26.9587 18.4116 27.0318C19.3754 27.105 20.2903 27.4223 21.0357 27.942L21.706 28.418L22.4733 28.0508C23.2578 27.7194 24.1362 27.5783 25.0105 27.6431C25.8847 27.708 26.7204 27.9763 27.424 28.418H27.4078Z" fill="#FFE9C5"/>
<path d="M38.0926 28.0644C38.343 28.4324 38.4181 28.8668 38.3026 29.2796C38.1872 29.6925 37.8898 30.053 37.4707 30.2883L7.03171 44.6584C6.62035 44.864 6.13398 44.936 5.66403 44.8609C5.19408 44.7857 4.7729 44.5686 4.47965 44.2504C4.18127 43.9337 4.02916 43.5368 4.05143 43.1329C4.0737 42.7291 4.26885 42.3458 4.6008 42.0537H4.68155C4.80772 41.9537 4.94575 41.8648 5.09344 41.7885L35.5244 27.3911C35.975 27.2133 36.4883 27.1838 36.9635 27.3084C37.4387 27.433 37.8414 27.7026 38.0926 28.0644Z" fill="#FFE9C5"/>
<path d="M37.6807 32.7978L39.7966 37.5584C39.1058 38.7881 37.9765 39.8057 36.5662 40.4691C35.1626 41.1333 33.5466 41.4093 31.9466 41.258C29.8245 41.0685 27.6849 41.4392 25.8241 42.3189C23.9633 43.1987 22.4734 44.5439 21.5607 46.1683C20.8605 47.3803 19.7374 48.3834 18.3418 49.0434C16.9462 49.7033 15.3445 49.9886 13.751 49.8611L9.42223 46.1274L37.6807 32.7978Z" fill="#FFE9C5"/>
<path d="M43.6813 49.6503L44.1093 50.582C44.3939 51.2019 44.4026 51.8876 44.134 52.5125C43.8653 53.1374 43.3374 53.6595 42.6475 53.9824L29.1361 60.3752C28.4699 60.6995 27.688 60.8128 26.9313 60.6948C26.1685 60.5799 25.482 60.234 25.0011 59.7223L24.1935 58.8722L43.6813 49.6503Z" fill="#FFE9C5"/>
<path d="M40.2893 40.4895L42.6475 47.5216L22.4975 57.0428L15.9316 51.7857C17.5468 51.7857 18.314 51.7857 19.7274 51.1056C21.5852 50.2518 23.0665 48.9162 23.9512 47.2971C24.6174 46.0569 25.7368 45.0284 27.146 44.3617C28.5553 43.6949 30.1807 43.4248 31.7851 43.5907C33.9013 43.8013 36.0414 43.4265 37.8825 42.523C39.199 41.9313 39.4332 41.4892 40.2893 40.4895Z" fill="#F47820"/>
<path d="M69.6944 56.8433C66.1381 56.6626 62.6633 55.6378 59.5202 53.8427C58.9801 53.5215 58.8779 53.2317 59.1334 52.6284C60.1698 50.2076 61.1916 47.7789 62.155 45.3189C62.425 44.6452 62.6513 44.6217 63.1987 44.9664C65.9237 46.7117 69.0392 47.6297 72.2124 47.6222C72.8189 47.6003 73.4223 47.519 74.0151 47.3794C74.256 47.3324 74.599 47.2462 74.599 46.8701C74.599 46.4941 74.3143 46.4706 74.1027 46.3609C72.8567 45.849 71.5619 45.4864 70.2418 45.2798C68.2164 44.8636 66.2374 44.2203 64.3372 43.3603C57.8853 40.2266 58.4984 31.7185 62.4761 28.0363C64.7335 25.9836 67.5511 24.7738 70.5045 24.5892C74.9493 24.1896 79.2627 24.6753 83.3645 26.8533C84.1893 27.292 84.4447 27.6367 84.0141 28.6552C83.0434 30.9272 82.1822 33.254 81.3282 35.5808C81.0947 36.2154 80.8757 36.2311 80.3575 35.949C78.0102 34.5528 75.3774 33.8019 72.6941 33.7632C72.118 33.7682 71.5455 33.8605 70.9935 34.0374C70.6724 34.1471 70.3074 34.296 70.3001 34.719C70.2928 35.1421 70.6797 35.1812 70.9497 35.2909C72.5142 35.808 74.112 36.2008 75.7303 36.4661C78.3504 37.085 80.9487 37.8293 82.9704 39.8584C86.4007 43.2898 86.1599 49.6357 82.5179 53.1768C80.1877 55.3585 77.2419 56.636 74.1538 56.8041C73.9348 56.8041 73.6575 56.6553 73.5188 57H73.1539C72.0372 56.6396 70.8548 56.9373 69.6944 56.8433ZM71.7161 55.0727C72.4459 55.0727 73.1758 55.1276 73.9056 55.0727C76.9053 54.7829 79.6861 53.8897 81.8245 51.4219C84.6345 48.1628 84.7439 42.1538 79.9926 39.827C78.2704 39.0126 76.465 38.4183 74.6136 38.0565C73.049 37.8422 71.5131 37.432 70.0374 36.8343C69.6146 36.6855 69.248 36.3936 68.9928 36.0023C68.7375 35.6111 68.6072 35.1416 68.6215 34.6642C68.64 34.1906 68.7884 33.7335 69.0481 33.3502C69.3078 32.9669 69.6672 32.6745 70.0812 32.5097C70.8079 32.1761 71.5898 32.0029 72.3802 32.0005C74.8173 31.9472 77.2343 32.4827 79.4525 33.5674C79.9853 33.8181 80.248 33.7946 80.467 33.16C80.8914 31.872 81.3787 30.609 81.9267 29.376C82.35 28.4829 82.0727 28.1616 81.3063 27.8561C76.9994 26.0621 72.2762 25.7662 67.804 27.01C64.6949 27.8874 62.2426 29.7912 61.3667 33.3715C60.4909 36.9518 61.7755 40.0386 64.9357 41.7308C66.4813 42.4875 68.1059 43.0425 69.7747 43.3838C71.4898 43.7991 73.2561 44.0106 74.8836 44.8097C75.303 44.9683 75.6638 45.2675 75.9126 45.6631C76.1614 46.0586 76.2852 46.5296 76.2656 47.0065C76.2459 47.4833 76.0839 47.9407 75.8036 48.3112C75.5232 48.6816 75.1392 48.9455 74.7085 49.0638C74.1387 49.2845 73.5403 49.4087 72.9349 49.432C69.8583 49.5823 66.7941 48.9233 64.0088 47.5126C63.3592 47.1914 63.1184 47.3559 62.8775 48.0061C62.4323 49.1813 61.9287 50.3564 61.4543 51.4924C60.9215 52.7773 60.9142 52.7929 62.1842 53.31C65.219 54.5786 68.4607 55.1781 71.7161 55.0727Z" fill="#811620"/>
<path d="M71.7161 55.0727C68.4724 55.1568 65.2461 54.5414 62.228 53.263C60.9653 52.7459 60.9726 52.7302 61.4981 51.4454C61.9214 50.2781 62.4542 49.1343 62.8994 47.9278C63.1403 47.2775 63.3812 47.1443 64.0307 47.4342C66.816 48.845 69.8802 49.5039 72.9568 49.3536C73.5622 49.3304 74.1606 49.2062 74.7304 48.9854C75.1612 48.8671 75.5451 48.6033 75.8255 48.2328C76.1059 47.8624 76.2678 47.4049 76.2875 46.9281C76.3071 46.4513 76.1834 45.9803 75.9345 45.5847C75.6857 45.1891 75.3249 44.89 74.9055 44.7313C73.2926 43.9479 71.5263 43.7207 69.7966 43.3055C68.1331 42.9655 66.5135 42.4132 64.9722 41.6603C61.812 39.968 60.5128 36.9596 61.4032 33.301C62.2937 29.6423 64.7314 27.8169 67.8406 26.9395C72.3127 25.6956 77.0359 25.9916 81.3428 27.7856C82.1092 28.0911 82.3865 28.4123 81.9632 29.3055C81.4152 30.5384 80.9279 31.8015 80.5035 33.0895C80.2846 33.724 80.0218 33.7475 79.489 33.4968C77.2708 32.4122 74.8538 31.8767 72.4167 31.93C71.6263 31.9324 70.8444 32.1056 70.1177 32.4392C69.7037 32.604 69.3443 32.8964 69.0846 33.2797C68.8249 33.663 68.6765 34.1201 68.658 34.5937C68.6437 35.0711 68.774 35.5406 69.0293 35.9318C69.2845 36.3231 69.6511 36.615 70.0739 36.7638C71.5496 37.3615 73.0855 37.7717 74.6501 37.9859C76.5015 38.3478 78.307 38.942 80.0291 39.7565C84.7513 42.1068 84.671 48.0923 81.861 51.3514C79.7226 53.8192 76.9418 54.7123 73.9421 55.0022C73.1831 55.1276 72.4459 55.0727 71.7161 55.0727Z" fill="#F47820"/>
<path d="M295 49.3928C294.956 49.3928 294.869 49.4476 294.861 49.4868C293.73 53.9289 290.555 55.6995 286.731 56.3732C282.482 57.1528 278.116 56.6482 274.119 54.916C272.243 54.1326 272.25 54.0778 273.002 52.1505C273.688 50.3799 274.316 48.5702 275.104 46.8545C275.455 46.071 275.469 45.7263 274.812 45.1387C272.141 42.7884 271.893 36.6541 275.914 33.63C278.095 32.0561 280.658 31.2035 283.286 31.1779C286.66 30.903 290.048 31.4604 293.19 32.8074C294.445 33.395 294.438 33.4185 293.92 34.7582C293.117 36.8343 292.329 38.9104 291.504 40.9787C291.358 41.3312 291.329 41.5036 291.686 41.7151C292.542 42.1843 293.279 42.8705 293.832 43.7141C294.385 44.5578 294.739 45.5335 294.861 46.5568C294.861 46.5568 294.956 46.6194 295 46.6508V49.3928ZM284.782 32.9406C284.205 32.9406 283.629 32.8936 283.052 32.9406C280.6 33.1756 278.294 33.8024 276.338 35.573C273.812 37.8606 273.747 43.3603 277.52 44.9194C279.002 45.4876 280.54 45.8688 282.103 46.0554C283.313 46.141 284.512 46.3455 285.687 46.6664C286.001 46.7484 286.282 46.9367 286.488 47.2033C286.695 47.47 286.815 47.801 286.833 48.1471C286.854 48.5086 286.765 48.8677 286.58 49.1701C286.394 49.4726 286.122 49.702 285.804 49.8237C285.361 50.0409 284.882 50.1582 284.395 50.1684C281.812 50.3671 279.222 49.8997 276.841 48.8052C276.367 48.5859 276.148 48.6642 275.965 49.1891C275.608 50.1919 275.236 51.2026 274.812 52.1662C274.469 52.9026 274.601 53.2395 275.33 53.5137C278.468 54.6718 281.797 55.1121 285.103 54.8064C286.896 54.7155 288.645 54.1791 290.212 53.2395C292.197 52.0017 293.416 50.2154 293.329 47.6849C293.234 44.8724 291.694 43.2585 289.249 42.5142C287.992 42.1478 286.711 41.8859 285.417 41.7308C284.325 41.6713 283.244 41.4687 282.198 41.1275C281.888 41.0351 281.61 40.8444 281.402 40.5803C281.194 40.3162 281.064 39.991 281.031 39.6468C281.027 39.3143 281.115 38.988 281.284 38.7092C281.453 38.4304 281.695 38.2114 281.979 38.08C282.42 37.7928 282.924 37.636 283.439 37.6256C285.653 37.4005 287.885 37.747 289.949 38.6362C290.402 38.8477 290.606 38.7381 290.774 38.2758C291.176 37.1868 291.577 36.0979 292.03 35.0324C292.27 34.4448 292.161 34.1941 291.584 33.9983C289.378 33.2534 287.073 32.8988 284.76 32.9484L284.782 32.9406ZM277.068 46.8623C279.392 48.1332 282.017 48.6323 284.607 48.296C282.074 47.8259 279.513 47.6379 277.046 46.8701L277.068 46.8623ZM289.855 40.7045C287.87 39.5538 285.586 39.1406 283.359 39.5293C285.483 40.0386 287.701 40.0934 289.833 40.7123L289.855 40.7045Z" fill="#811620"/>
<path d="M284.76 32.9484C287.069 32.9081 289.369 33.2706 291.57 34.0218C292.146 34.2176 292.256 34.4683 292.015 35.0559C291.562 36.1214 291.161 37.2104 290.76 38.2993C290.592 38.7616 290.387 38.8712 289.935 38.6597C287.871 37.7705 285.639 37.424 283.425 37.6491C282.909 37.6595 282.406 37.8163 281.965 38.1035C281.68 38.2349 281.438 38.4539 281.269 38.7327C281.101 39.0116 281.012 39.3378 281.016 39.6703C281.05 40.0145 281.179 40.3397 281.387 40.6038C281.596 40.8679 281.873 41.0586 282.184 41.151C283.23 41.4922 284.311 41.6948 285.402 41.7543C286.697 41.9094 287.978 42.1713 289.234 42.5377C291.679 43.3212 293.219 44.888 293.314 47.7084C293.402 50.2389 292.183 52.0252 290.198 53.263C288.631 54.2027 286.882 54.739 285.089 54.8299C281.783 55.1356 278.454 54.6953 275.316 53.5372C274.586 53.263 274.455 52.9261 274.798 52.1897C275.236 51.2261 275.593 50.2154 275.951 49.2126C276.133 48.6877 276.352 48.6094 276.827 48.8287C279.207 49.9232 281.797 50.3906 284.381 50.1919C284.867 50.1817 285.347 50.0644 285.789 49.8472C286.107 49.7255 286.379 49.4961 286.565 49.1936C286.751 48.8912 286.84 48.5321 286.818 48.1706C286.801 47.8245 286.68 47.4935 286.474 47.2268C286.267 46.9602 285.986 46.7719 285.673 46.69C284.498 46.369 283.298 46.1645 282.089 46.0789C280.525 45.8923 278.987 45.5111 277.505 44.9429C273.732 43.376 273.798 37.8919 276.323 35.5965C278.279 33.8259 280.585 33.1991 283.038 32.9641C283.607 32.9014 284.184 32.9484 284.76 32.9484Z" fill="#F47820"/>
<path d="M240.845 31.5461C242.108 31.5461 243.363 31.5461 244.618 31.5461C245.144 31.5461 245.348 31.6401 245.348 32.2825C245.348 40.0438 245.348 47.8076 245.348 55.5741C245.348 56.1539 245.166 56.2714 244.669 56.2714C237.556 56.2714 230.442 56.2714 223.328 56.2714C223.136 56.2714 222.947 56.218 222.779 56.1164C222.612 56.0148 222.472 55.8685 222.372 55.6917C221.078 53.9106 219.779 52.1453 218.475 50.3956C218.314 50.1841 218.198 49.761 217.891 49.8864C217.739 49.962 217.614 50.0881 217.533 50.2461C217.453 50.4041 217.423 50.5856 217.446 50.7638C217.446 52.3307 217.446 53.9603 217.446 55.5585C217.446 56.1147 217.307 56.2714 216.789 56.2636C213.719 56.2636 210.648 56.2636 207.578 56.2636C207.038 56.2636 206.921 56.0677 206.921 55.535C206.921 45.0578 206.921 34.5858 206.921 24.1191C206.921 23.5394 207.038 23.3357 207.651 23.3357C210.658 23.3774 213.668 23.3774 216.68 23.3357C217.314 23.3357 217.482 23.5002 217.475 24.1896C217.475 28.24 217.475 32.2825 217.475 36.3251C217.475 36.4504 217.475 36.5758 217.475 36.8813C219.008 35.2283 220.467 33.6927 221.854 32.1023C222.009 31.9104 222.202 31.759 222.42 31.6599C222.638 31.5608 222.873 31.5165 223.11 31.5304C227.729 31.5304 232.349 31.5304 236.977 31.5304H239.341C238.75 31.3737 238.188 31.2562 237.655 31.0682C236.574 30.7382 235.623 30.0387 234.945 29.0759C234.268 28.1132 233.902 26.9395 233.902 25.733C233.902 24.5264 234.268 23.3528 234.945 22.39C235.623 21.4272 236.574 20.7278 237.655 20.3978C239.293 19.8443 241.053 19.869 242.677 20.4683C243.687 20.8015 244.573 21.4719 245.204 22.382C245.835 23.2921 246.18 24.3946 246.187 25.5293C246.205 26.6969 245.887 27.8421 245.278 28.8092C244.668 29.7763 243.795 30.5185 242.779 30.935C242.157 31.2135 241.508 31.4184 240.845 31.5461ZM231.247 33.3245C228.7 33.3245 226.372 33.3245 224.044 33.3245C223.772 33.3039 223.5 33.3495 223.247 33.4581C222.994 33.5666 222.767 33.7352 222.584 33.9512C220.635 36.1057 218.657 38.2288 216.68 40.3519C216.446 40.6026 216.263 40.963 215.833 41.0414C215.833 35.9882 215.833 30.9977 215.833 26.0072C215.833 25.3413 215.687 25.0984 215.03 25.1141C213.176 25.1611 211.322 25.1141 209.469 25.1141C208.907 25.1141 208.666 25.2394 208.666 25.8975C208.666 35.1682 208.666 44.4336 208.666 53.6939C208.666 54.2893 208.841 54.4773 209.396 54.4773C210.797 54.4773 212.191 54.4773 213.592 54.4773C215.826 54.4773 215.942 54.4773 215.782 52.127C215.686 51.297 215.787 50.4545 216.073 49.6769C216.36 48.8994 216.825 48.2117 217.424 47.6771C218.11 47.019 218.336 47.2148 218.76 47.8103C220.168 49.7767 221.621 51.7275 223.015 53.6782C223.192 53.9565 223.434 54.1797 223.717 54.3255C224.001 54.4713 224.314 54.5345 224.628 54.5087C226.817 54.4538 229.007 54.5087 231.196 54.5087C231.452 54.5087 231.736 54.6262 231.926 54.3911C231.876 54.1298 231.748 53.8932 231.561 53.7174C228.956 50.1527 226.365 46.5803 223.73 43.047C223.314 42.4907 223.321 42.2087 223.781 41.6994C226.255 38.9809 228.642 36.2467 231.247 33.3245ZM243.735 43.9166C243.735 40.6653 243.735 37.4062 243.735 34.1471C243.735 33.6065 243.662 33.301 243.056 33.3167C241.078 33.3167 239.108 33.3167 237.13 33.3167C236.597 33.3167 236.466 33.5439 236.473 34.1001C236.473 40.6496 236.473 47.1992 236.473 53.7487C236.473 54.352 236.656 54.5322 237.203 54.5322C239.115 54.5322 241.035 54.5322 242.947 54.5322C243.604 54.5322 243.757 54.2893 243.75 53.6312C243.699 50.3721 243.713 47.1443 243.713 43.9166H243.735ZM234.78 32.0632C234.666 32.1391 234.559 32.2256 234.459 32.3217C231.583 35.5416 228.722 38.7772 225.839 41.9893C225.496 42.381 225.606 42.6004 225.839 42.9451C227.722 45.4991 229.591 48.061 231.466 50.6228L234.758 55.1041L234.78 32.0632ZM240.079 29.6423C240.871 29.7086 241.665 29.5632 242.392 29.2193C243.043 28.9301 243.598 28.4396 243.988 27.8104C244.378 27.1812 244.585 26.4417 244.582 25.686C244.625 25.0455 244.489 24.4058 244.193 23.8479C243.897 23.29 243.453 22.8391 242.918 22.5522C242.094 22.0547 241.168 21.7868 240.223 21.7731C239.278 21.7594 238.345 22.0004 237.51 22.4739C236.926 22.7623 236.435 23.2307 236.099 23.8194C235.764 24.4081 235.599 25.0906 235.626 25.78C235.608 26.4767 235.779 27.1641 236.119 27.7581C236.458 28.3522 236.952 28.8273 237.539 29.1253C238.319 29.5639 239.203 29.7439 240.079 29.6423Z" fill="#811620"/>
<path d="M231.247 33.3245C228.664 36.2467 226.277 38.9809 223.839 41.6681C223.38 42.1773 223.372 42.4516 223.788 43.0156C226.423 46.5489 229.014 50.1214 231.62 53.6861C231.806 53.8619 231.935 54.0985 231.985 54.3598C231.758 54.5948 231.474 54.4773 231.255 54.4773C229.065 54.4773 226.876 54.4773 224.686 54.4773C224.373 54.5031 224.059 54.44 223.776 54.2942C223.493 54.1484 223.25 53.9251 223.073 53.6469C221.679 51.6726 220.227 49.7297 218.818 47.7789C218.395 47.1835 218.168 46.9955 217.482 47.6457C216.883 48.1804 216.419 48.868 216.132 49.6456C215.845 50.4231 215.745 51.2656 215.84 52.0957C215.993 54.446 215.877 54.446 213.651 54.446C212.249 54.446 210.855 54.446 209.454 54.446C208.899 54.446 208.724 54.258 208.724 53.6625C208.724 44.3919 208.724 35.1264 208.724 25.8662C208.724 25.1846 208.965 25.0827 209.527 25.0827C211.381 25.0827 213.235 25.1297 215.088 25.0827C215.745 25.0827 215.899 25.3099 215.891 25.9759C215.891 30.9664 215.891 35.9568 215.891 41.01C216.322 40.9317 216.504 40.5713 216.738 40.3206C218.716 38.1975 220.694 36.0744 222.642 33.9199C222.826 33.7039 223.052 33.5353 223.305 33.4267C223.558 33.3182 223.831 33.2725 224.102 33.2932C226.35 33.3402 228.678 33.3245 231.247 33.3245Z" fill="#F47820"/>
<path d="M243.713 43.9166C243.713 47.1443 243.713 50.3721 243.713 53.5999C243.713 54.258 243.567 54.5165 242.91 54.5008C240.998 54.4538 239.079 54.5008 237.166 54.5008C236.619 54.5008 236.437 54.3285 236.437 53.7174C236.437 47.1678 236.437 40.6183 236.437 34.0688C236.437 33.5439 236.561 33.2853 237.093 33.2853C239.071 33.2853 241.042 33.2853 243.02 33.2853C243.626 33.2853 243.706 33.5752 243.699 34.1158C243.706 37.4062 243.713 40.6653 243.713 43.9166Z" fill="#F47820"/>
<path d="M240.079 29.6423C239.199 29.7319 238.315 29.5383 237.539 29.0861C236.957 28.7908 236.468 28.3219 236.129 27.7355C235.79 27.1491 235.615 26.4701 235.626 25.78C235.598 25.0932 235.759 24.4126 236.09 23.8241C236.421 23.2357 236.908 22.7658 237.488 22.4739C238.323 22.0004 239.256 21.7594 240.201 21.7731C241.146 21.7868 242.072 22.0547 242.896 22.5522C243.431 22.8391 243.875 23.29 244.171 23.8479C244.467 24.4058 244.603 25.0455 244.56 25.686C244.563 26.4417 244.356 27.1812 243.966 27.8104C243.576 28.4396 243.021 28.9301 242.37 29.2193C241.65 29.5594 240.863 29.7046 240.079 29.6423Z" fill="#F47820"/>
<path d="M122.937 32.7056C125.218 31.2433 127.933 30.7698 130.528 31.3816C131.976 31.6542 133.321 32.3665 134.403 33.4342C134.965 34.0139 135.242 33.8651 135.783 33.4342C139.213 30.6686 142.957 30.3944 146.774 32.2747C149.569 33.6535 150.825 36.3564 151.299 39.5137C151.44 40.5512 151.503 41.5991 151.489 42.6474C151.489 46.925 151.489 51.2026 151.489 55.4723C151.489 56.099 151.358 56.2949 150.759 56.2557C147.747 56.2192 144.735 56.2192 141.724 56.2557C141.11 56.2557 140.994 56.0599 140.994 55.4723C140.994 51.6883 140.994 47.9043 140.994 44.1203C141.015 43.4663 140.951 42.8124 140.804 42.1773C140.755 41.8526 140.608 41.5543 140.385 41.3289C140.162 41.1036 139.875 40.9639 139.57 40.9317C139.251 40.8831 138.926 40.9403 138.637 41.0957C138.349 41.2511 138.112 41.4973 137.957 41.8013C137.597 42.5217 137.43 43.3354 137.476 44.1516C137.476 47.8651 137.476 51.5864 137.476 55.3078C137.476 56.0285 137.366 56.3106 136.607 56.2949C133.688 56.2427 130.768 56.2427 127.849 56.2949C127.119 56.2949 126.98 56.0285 126.988 55.3078C126.988 51.6178 126.988 47.9356 126.988 44.2456C126.985 43.5943 126.932 42.9443 126.827 42.3027C126.812 41.9723 126.692 41.6573 126.488 41.4095C126.284 41.1618 126.007 40.996 125.703 40.9395C125.358 40.8596 124.998 40.9019 124.677 41.0601C124.356 41.2183 124.091 41.4838 123.922 41.817C123.577 42.5421 123.426 43.3555 123.484 44.1673C123.484 47.8808 123.484 51.6021 123.484 55.3234C123.484 56.1069 123.266 56.2792 122.572 56.2714C119.653 56.2714 116.675 56.2714 113.719 56.2714C113.157 56.2714 112.989 56.1617 112.989 55.4879C112.989 47.758 112.989 40.0255 112.989 32.2904C112.989 31.6714 113.157 31.5069 113.719 31.5069C116.514 31.5069 119.317 31.5461 122.112 31.5069C122.74 31.5148 123.185 31.6009 122.937 32.7056ZM121.572 36.6619L121.346 36.5053C121.346 35.7218 121.346 34.9384 121.346 34.1001C121.346 33.4968 121.185 33.3167 120.616 33.3167C118.85 33.3167 117.091 33.3167 115.325 33.3167C114.807 33.3167 114.595 33.4342 114.595 34.1001C114.595 40.6601 114.595 47.2175 114.595 53.7722C114.595 54.4068 114.814 54.5557 115.325 54.5557C116.668 54.5557 118.003 54.5557 119.339 54.5557C120.069 54.5557 121.061 54.9004 121.528 54.4068C121.996 53.9132 121.689 52.8399 121.718 51.9625C121.806 48.8287 121.543 45.695 121.879 42.5612C121.963 41.642 122.353 40.7862 122.978 40.1513C123.603 39.5165 124.42 39.1453 125.28 39.1063C126.032 39.0875 126.765 39.3635 127.341 39.8826C127.917 40.4017 128.298 41.1283 128.411 41.9266C128.541 42.5968 128.609 43.2791 128.615 43.9636C128.615 47.1992 128.615 50.4269 128.615 53.6547C128.615 54.3206 128.769 54.5713 129.425 54.5557C131.25 54.5087 133.075 54.493 134.899 54.5557C135.666 54.5557 135.79 54.2736 135.783 53.545C135.783 50.4504 135.783 47.348 135.783 44.2456C135.777 43.5613 135.84 42.8782 135.972 42.2087C136.121 41.3453 136.541 40.5629 137.163 39.9924C137.785 39.4219 138.57 39.098 139.388 39.0749C140.141 39.0958 140.862 39.4012 141.426 39.9372C141.989 40.4732 142.358 41.2055 142.468 42.005C142.599 42.8042 142.665 43.6142 142.665 44.4258C142.665 47.4969 142.665 50.5601 142.665 53.6312C142.665 54.1013 142.614 54.5243 143.285 54.5165C145.263 54.5165 147.241 54.5165 149.219 54.5165C149.628 54.5165 149.825 54.399 149.818 53.9132C149.715 49.3536 150.051 44.7784 149.635 40.2266C149.132 34.7425 145.336 32.3922 140.556 33.0738C139.556 33.2134 138.593 33.5677 137.724 34.1155C136.856 34.6634 136.098 35.3935 135.498 36.2624C135.082 36.85 134.768 37.0458 134.359 36.2624C134.101 35.7433 133.757 35.2788 133.345 34.8914C131.82 33.5725 129.899 32.8945 127.943 32.9839C125.986 33.0732 124.126 33.9239 122.711 35.3771C122.302 35.7375 121.944 36.1762 121.572 36.6619Z" fill="#811620"/>
<path d="M121.572 36.6619C121.945 36.2076 122.302 35.7375 122.704 35.3066C124.119 33.8534 125.979 33.0027 127.935 32.9134C129.892 32.824 131.812 33.502 133.338 34.8209C133.75 35.2083 134.094 35.6728 134.352 36.1919C134.754 36.9753 135.082 36.8186 135.491 36.1919C136.091 35.323 136.848 34.5929 137.717 34.045C138.586 33.4972 139.549 33.1429 140.549 33.0033C145.329 32.2825 149.124 34.6485 149.628 40.1561C150.044 44.7079 149.708 49.2831 149.81 53.8427C149.81 54.3285 149.621 54.4538 149.212 54.446C147.234 54.446 145.256 54.446 143.278 54.446C142.607 54.446 142.658 54.0308 142.658 53.5607C142.658 50.4896 142.658 47.4264 142.658 44.3553C142.658 43.5437 142.592 42.7337 142.461 41.9345C142.351 41.135 141.982 40.4027 141.418 39.8667C140.855 39.3307 140.133 39.0253 139.381 39.0044C138.563 39.0275 137.778 39.3514 137.156 39.9219C136.534 40.4923 136.114 41.2748 135.965 42.1382C135.833 42.8077 135.769 43.4907 135.775 44.1751C135.775 47.3089 135.775 50.3799 135.775 53.4745C135.775 54.2031 135.659 54.5165 134.892 54.4852C133.068 54.4225 131.243 54.4382 129.418 54.4852C128.761 54.4852 128.608 54.2501 128.608 53.5842C128.608 50.3564 128.608 47.1287 128.608 43.8931C128.602 43.2086 128.534 42.5263 128.404 41.8561C128.29 41.0578 127.91 40.3312 127.334 39.8121C126.757 39.293 126.025 39.017 125.273 39.0358C124.413 39.0748 123.595 39.446 122.97 40.0808C122.346 40.7157 121.955 41.5715 121.872 42.4907C121.536 45.6245 121.799 48.7582 121.711 51.892C121.711 52.7303 122.054 53.7879 121.521 54.3363C120.988 54.8847 120.062 54.4695 119.332 54.4852C117.996 54.4852 116.66 54.4852 115.318 54.4852C114.792 54.4852 114.588 54.3676 114.588 53.7017C114.588 47.1417 114.588 40.5844 114.588 34.0296C114.588 33.395 114.821 33.2462 115.318 33.2462C117.084 33.2462 118.843 33.2462 120.609 33.2462C121.171 33.2462 121.339 33.4263 121.339 34.0296C121.302 34.813 121.339 35.5965 121.339 36.4348L121.572 36.6619Z" fill="#F47820"/>
<path d="M96.7208 32.5254C98.9507 31.2296 101.532 30.8085 104.019 31.3346C105.932 31.6242 107.698 32.5987 109.031 34.1003C110.364 35.6019 111.185 37.5425 111.362 39.6077C111.479 40.6108 111.537 41.6208 111.537 42.6317C111.537 46.9015 111.537 51.1712 111.537 55.4488C111.537 56.0677 111.413 56.2714 110.807 56.2322C107.8 56.2322 104.786 56.2322 101.779 56.2322C101.173 56.2322 101.049 56.052 101.049 55.4488C101.049 51.6961 101.049 47.9513 101.049 44.1986C101.047 43.7432 101.022 43.2882 100.976 42.8354C100.881 41.9031 100.611 41.104 99.6038 40.916C99.1229 40.8038 98.6208 40.8688 98.1785 41.1005C97.7362 41.3322 97.3796 41.7171 97.166 42.193C96.8722 42.913 96.735 43.6953 96.7646 44.4807C96.7646 48.1315 96.7646 51.7823 96.7646 55.4488C96.7646 56.052 96.6697 56.2871 96.0348 56.2792C93.0205 56.2792 90.0135 56.2792 87.0065 56.2792C86.4153 56.2792 86.2328 56.1304 86.2328 55.4958C86.2328 45.05 86.2328 34.6041 86.2328 24.1583C86.2328 23.5159 86.3934 23.3748 86.9627 23.3748C89.9697 23.4166 92.9791 23.4166 95.991 23.3748C96.6114 23.3748 96.7208 23.5864 96.7208 24.1583C96.6989 26.9003 96.7208 29.6345 96.7208 32.5254ZM95.0714 36.1762V35.0089C95.0714 31.977 95.0714 28.9451 95.0714 25.9132C95.0714 25.2864 94.9181 25.0592 94.3415 25.0749C92.4585 25.0749 90.5682 25.0749 88.6852 25.0749C88.0648 25.0749 87.9553 25.3099 87.9553 25.9288C87.9553 35.1577 87.9553 44.3866 87.9553 53.6155C87.9553 54.3441 88.218 54.4695 88.8092 54.4617C90.6339 54.4617 92.4585 54.4147 94.2831 54.4617C95.013 54.4617 95.1371 54.2266 95.1298 53.5137C95.1298 50.3799 95.1298 47.1914 95.1298 44.0263C95.1208 43.013 95.3492 42.0135 95.7939 41.1197C96.1792 40.4104 96.7472 39.8356 97.4295 39.4645C98.1119 39.0934 98.8795 38.9418 99.6403 39.0279C100.348 39.0918 101.017 39.403 101.544 39.9138C102.071 40.4246 102.428 41.1069 102.56 41.8561C102.71 42.6291 102.786 43.4167 102.786 44.2065C102.786 47.3402 102.786 50.474 102.786 53.6077C102.786 54.0778 102.735 54.5008 103.406 54.493C105.384 54.493 107.355 54.493 109.333 54.493C109.741 54.493 109.946 54.3833 109.938 53.8976C109.836 49.197 110.201 44.5668 109.727 39.921C109.457 37.273 108.355 35.0089 105.961 33.8651C104.487 33.0671 102.832 32.7362 101.189 32.911C99.5461 33.0858 97.9837 33.7591 96.6843 34.8522C96.1297 35.2283 95.6917 35.6591 95.0714 36.1762Z" fill="#811620"/>
<path d="M95.0714 36.1762C95.6918 35.6278 96.1297 35.1969 96.6041 34.813C97.9034 33.7199 99.4658 33.0466 101.109 32.8718C102.751 32.697 104.407 33.0279 105.881 33.8259C108.274 34.9697 109.377 37.2339 109.647 39.8819C110.121 44.5277 109.756 49.1969 109.858 53.8584C109.858 54.3441 109.661 54.4617 109.252 54.4538C107.275 54.4538 105.304 54.4538 103.326 54.4538C102.655 54.4538 102.706 54.0386 102.706 53.5685C102.706 50.4348 102.706 47.301 102.706 44.1673C102.706 43.3776 102.63 42.59 102.479 41.817C102.348 41.0677 101.991 40.3855 101.464 39.8747C100.937 39.3638 100.268 39.0527 99.56 38.9888C98.7993 38.9027 98.0316 39.0543 97.3493 39.4254C96.6669 39.7964 96.099 40.3712 95.7137 41.0805C95.2689 41.9744 95.0406 42.9738 95.0495 43.9871C95.0495 47.1208 95.0495 50.3173 95.0495 53.4745C95.0495 54.1875 94.9035 54.446 94.2029 54.4225C92.3782 54.3676 90.5536 54.4225 88.729 54.4225C88.1378 54.4225 87.8751 54.305 87.8751 53.5764C87.8751 44.3475 87.8751 35.1186 87.8751 25.8897C87.8751 25.2708 88.0064 25.0201 88.6049 25.0357C90.4879 25.0357 92.3782 25.0357 94.2613 25.0357C94.867 25.0357 95.0276 25.2473 94.9911 25.874C94.9911 28.9059 94.9911 31.9378 94.9911 34.9697L95.0714 36.1762Z" fill="#F47820"/>
<path d="M164.765 31.1309C169.422 31.1309 172.939 32.3609 175.713 35.5103C180.581 40.9944 180.026 52.7459 170.027 55.9815C165.772 57.3447 161.517 57.047 157.62 54.4851C153.43 51.7118 151.657 47.5204 152.197 42.3419C152.737 37.1633 155.649 33.8024 160.145 32.0162C161.622 31.4199 163.188 31.1198 164.765 31.1309ZM164.896 54.9082C168.969 54.9082 172.151 53.7801 174.669 50.8422C178.187 46.7448 177.691 39.31 173.64 35.8393C171.434 34.0585 168.78 33.0314 166.023 32.8917C163.266 32.752 160.534 33.5061 158.182 35.0559C157.079 35.852 156.136 36.8778 155.409 38.0722C154.682 39.2667 154.185 40.6057 153.949 42.0099C153.713 43.414 153.742 44.8547 154.034 46.2467C154.326 47.6387 154.875 48.9536 155.649 50.1136C158.072 53.5764 161.459 54.8377 164.896 54.9082Z" fill="#811620"/>
<path d="M164.896 54.9082C161.459 54.8377 158.072 53.5764 155.649 50.1057C154.875 48.9458 154.326 47.6309 154.034 46.2389C153.742 44.8469 153.713 43.4062 153.949 42.002C154.185 40.5979 154.682 39.2589 155.409 38.0644C156.136 36.8699 157.079 35.8442 158.182 35.0481C160.534 33.4982 163.266 32.7441 166.023 32.8839C168.78 33.0236 171.434 34.0507 173.64 35.8315C177.691 39.3021 178.187 46.7369 174.669 50.8343C172.129 53.7801 168.969 54.9004 164.896 54.9082ZM169.692 43.7285C169.692 43.5797 169.692 43.282 169.692 42.9921C169.661 42.0626 169.374 41.1638 168.867 40.4093C168.361 39.6548 167.657 39.0787 166.845 38.7537C166.013 38.4254 165.105 38.3904 164.253 38.6539C163.401 38.9173 162.65 39.4655 162.108 40.2187C160.744 42.0363 160.765 45.836 162.152 47.6457C162.56 48.2053 163.087 48.652 163.689 48.9487C164.29 49.2453 164.949 49.3833 165.61 49.3511C166.272 49.3189 166.916 49.1175 167.49 48.7636C168.064 48.4097 168.551 47.9136 168.911 47.3167C169.527 46.2434 169.801 44.9839 169.692 43.7285Z" fill="#F47820"/>
<path d="M169.692 43.7286C169.799 44.9848 169.522 46.2444 168.903 47.3167C168.544 47.9136 168.057 48.4097 167.483 48.7636C166.909 49.1175 166.264 49.3189 165.603 49.3511C164.942 49.3833 164.283 49.2453 163.681 48.9487C163.08 48.652 162.553 48.2053 162.145 47.6457C160.758 45.836 160.736 42.0363 162.101 40.2188C162.643 39.4655 163.394 38.9173 164.246 38.6539C165.098 38.3904 166.006 38.4254 166.838 38.7537C167.65 39.0787 168.353 39.6548 168.86 40.4093C169.367 41.1638 169.654 42.0626 169.684 42.9921C169.699 43.282 169.692 43.5797 169.692 43.7286ZM168.064 43.6345C168.083 42.9887 167.944 42.3488 167.663 41.7778C167.47 41.3305 167.16 40.9527 166.772 40.69C166.383 40.4272 165.932 40.2908 165.473 40.2971C164.999 40.2521 164.523 40.3668 164.113 40.6251C163.702 40.8834 163.376 41.2726 163.181 41.7386C162.839 42.4612 162.676 43.2666 162.71 44.0766C162.743 44.8865 162.971 45.6734 163.371 46.3609C163.593 46.7413 163.901 47.055 164.267 47.2724C164.633 47.4899 165.044 47.6039 165.462 47.6039C165.88 47.6039 166.291 47.4899 166.657 47.2724C167.023 47.055 167.331 46.7413 167.553 46.3609C167.976 45.5282 168.154 44.5778 168.064 43.6345Z" fill="#811620"/>
<path d="M192.025 31.1309C196.681 31.1309 200.199 32.3609 202.973 35.5103C207.841 40.9943 207.286 52.7459 197.28 55.9815C193.025 57.3447 188.777 57.047 184.872 54.4851C180.683 51.7118 178.91 47.5204 179.45 42.3419C179.99 37.1633 182.946 33.8259 187.456 32.0161C188.917 31.4271 190.465 31.1272 192.025 31.1309ZM192.156 54.9082C196.222 54.9082 199.404 53.7801 201.922 50.8422C205.44 46.7448 204.943 39.3099 200.893 35.8393C198.688 34.0592 196.035 33.0324 193.28 32.8927C190.524 32.753 187.793 33.5067 185.442 35.0559C184.338 35.8513 183.394 36.8767 182.666 38.0711C181.939 39.2656 181.442 40.6048 181.206 42.0092C180.97 43.4137 180.999 44.8548 181.291 46.2469C181.584 47.6391 182.134 48.954 182.909 50.1136C185.332 53.5764 188.719 54.8377 192.156 54.9082Z" fill="#811620"/>
<path d="M192.156 54.9082C188.719 54.8377 185.332 53.5764 182.909 50.1057C182.134 48.9462 181.584 47.6313 181.291 46.2391C180.999 44.847 180.97 43.4059 181.206 42.0014C181.442 40.597 181.939 39.2578 182.667 38.0633C183.394 36.8689 184.338 35.8435 185.442 35.0481C187.793 33.4989 190.524 32.7452 193.28 32.8849C196.035 33.0246 198.688 34.0514 200.893 35.8315C204.943 39.3021 205.44 46.737 201.922 50.8343C199.404 53.7801 196.214 54.9004 192.156 54.9082ZM196.944 43.7286C196.944 43.5797 196.944 43.282 196.944 42.9921C196.913 42.0617 196.625 41.1622 196.117 40.4076C195.609 39.6531 194.904 39.0774 194.091 38.7537C193.26 38.426 192.353 38.3913 191.502 38.6548C190.652 38.9183 189.902 39.4662 189.361 40.2188C187.989 42.0363 188.011 45.836 189.361 47.6458C189.77 48.2053 190.297 48.652 190.9 48.9486C191.502 49.2452 192.161 49.3831 192.823 49.351C193.485 49.3188 194.13 49.1174 194.704 48.7635C195.279 48.4097 195.767 47.9137 196.127 47.3167C196.76 46.2497 197.047 44.9886 196.944 43.7286Z" fill="#F47820"/>
<path d="M196.944 43.7286C197.058 44.9842 196.783 46.245 196.163 47.3167C195.803 47.9137 195.316 48.4097 194.741 48.7635C194.166 49.1174 193.521 49.3188 192.859 49.3509C192.198 49.3831 191.538 49.2452 190.936 48.9486C190.334 48.652 189.806 48.2053 189.398 47.6457C188.011 45.836 187.989 42.0363 189.398 40.2188C189.938 39.4662 190.688 38.9183 191.539 38.6548C192.389 38.3913 193.296 38.426 194.127 38.7537C194.933 39.0836 195.631 39.6619 196.132 40.416C196.633 41.1701 196.916 42.0663 196.944 42.9921C196.944 43.282 196.944 43.5797 196.944 43.7286ZM195.317 43.6345C195.342 42.989 195.206 42.348 194.923 41.7778C194.728 41.3317 194.418 40.955 194.03 40.6925C193.642 40.43 193.192 40.2927 192.733 40.2971C192.259 40.2545 191.785 40.3701 191.374 40.6282C190.964 40.8862 190.638 41.2741 190.441 41.7386C190.103 42.4541 189.94 43.2498 189.967 44.0514C189.994 44.853 190.21 45.6341 190.595 46.3217C190.816 46.7022 191.125 47.0158 191.49 47.2333C191.856 47.4507 192.267 47.5648 192.686 47.5648C193.104 47.5648 193.515 47.4507 193.881 47.2333C194.246 47.0158 194.555 46.7022 194.777 46.3217C195.205 45.505 195.393 44.5682 195.317 43.6345Z" fill="#811620"/>
<path d="M259.42 42.3732C258.237 42.3732 257.048 42.3262 255.873 42.3732C255.106 42.3732 255.041 42.146 255.201 41.4252C255.603 39.5528 256.493 38.1426 258.288 37.7274C259.126 37.4548 260.021 37.4641 260.854 37.754C261.686 38.044 262.416 38.6006 262.945 39.3491C263.063 39.499 263.165 39.6618 263.251 39.8349C263.58 40.6183 264.091 41.4879 263.784 42.1852C263.602 42.6239 262.602 42.3027 261.974 42.3262C261.12 42.3889 260.274 42.3732 259.42 42.3732ZM257.354 40.5478H261.602C261.367 40.1745 261.051 39.8688 260.681 39.6574C260.311 39.4461 259.898 39.3355 259.478 39.3355C259.059 39.3355 258.646 39.4461 258.275 39.6574C257.905 39.8688 257.589 40.1745 257.354 40.5478Z" fill="#811620"/>
<path d="M266.091 47.3089C267.448 48.7034 268.776 50.1214 270.17 51.4611C270.696 51.9703 270.63 52.2445 270.17 52.7694C268.241 54.8788 265.685 56.1956 262.945 56.4908C259.602 56.9216 256.332 56.7336 253.238 55.1511C248.487 52.7068 245.939 47.8494 246.501 42.4672C246.773 39.8397 247.811 37.3716 249.468 35.4158C251.125 33.4599 253.316 32.1165 255.727 31.5774C258.938 30.7199 262.322 31.0172 265.361 32.4235C270.083 34.6563 272.448 39.3726 271.929 45.4364C271.805 47.0033 271.805 47.0033 270.346 47.0033H266.28L266.091 47.3089ZM262.748 45.2563H269.499C269.886 45.2563 270.324 45.3424 270.353 44.6843C270.492 41.0492 269.696 37.7274 266.842 35.5025C262.595 32.1728 257.931 31.9613 253.347 34.5153C251.81 35.3735 250.513 36.6536 249.587 38.2252C248.661 39.7967 248.14 41.6037 248.076 43.462C248.012 45.3202 248.408 47.1635 249.224 48.8039C250.04 50.4444 251.246 51.8235 252.72 52.8008C255.639 54.7907 258.916 55.1511 262.281 54.7907C264.243 54.6415 266.131 53.9211 267.74 52.7068C268.309 52.268 268.353 51.9233 267.835 51.4298C266.988 50.5836 266.193 49.6827 265.39 48.7896C265.113 48.484 264.864 48.3038 264.456 48.578C262.917 49.6042 261.073 49.9654 259.296 49.5887C258.413 49.4881 257.576 49.1158 256.886 48.5168C256.196 47.9178 255.682 47.1174 255.406 46.2121C255.165 45.4835 255.267 45.2328 256.033 45.2484C258.252 45.2798 260.5 45.2563 262.748 45.2563ZM263.383 47.0738H257.982C259.281 48.1942 261.748 48.1942 263.361 47.0738H263.383Z" fill="#811620"/>
<path d="M262.748 45.2562C260.5 45.2562 258.245 45.2562 255.997 45.2562C255.23 45.2562 255.128 45.4913 255.369 46.2199C255.645 47.1252 256.16 47.9256 256.85 48.5246C257.54 49.1237 258.377 49.4959 259.259 49.5965C261.036 49.9732 262.88 49.612 264.419 48.5859C264.828 48.3117 265.076 48.4918 265.353 48.7974C266.156 49.6905 266.952 50.5915 267.798 51.4376C268.317 51.9625 268.273 52.2759 267.704 52.7146C266.104 53.9222 264.231 54.6424 262.281 54.7985C258.916 55.1511 255.654 54.7985 252.72 52.8086C251.246 51.8313 250.04 50.4522 249.224 48.8118C248.408 47.1713 248.012 45.3281 248.076 43.4698C248.14 41.6115 248.661 39.8046 249.587 38.233C250.513 36.6614 251.811 35.3813 253.347 34.5231C257.931 31.9691 262.595 32.1728 266.842 35.5103C269.696 37.7352 270.492 41.057 270.353 44.6922C270.353 45.3503 269.886 45.2641 269.499 45.2641L262.748 45.2562ZM259.42 42.3732C260.274 42.3732 261.12 42.3732 261.974 42.3732C262.602 42.3732 263.602 42.6709 263.784 42.2322C264.091 41.5114 263.58 40.6653 263.251 39.8819C263.165 39.7088 263.063 39.546 262.945 39.3961C262.416 38.6476 261.686 38.091 260.854 37.8011C260.021 37.5111 259.126 37.5018 258.288 37.7744C256.493 38.1896 255.603 39.5998 255.201 41.4722C255.041 42.193 255.106 42.4594 255.873 42.4202C257.048 42.3262 258.252 42.3732 259.42 42.3732Z" fill="#F47820"/>
</svg>
